<?xml version="1.0" encoding="utf-8"?>
<svg viewBox="0 0 500 280.8" xmlns="http://www.w3.org/2000/svg" xmlns:bx="https://boxy-svg.com">
  <g transform="matrix(1.123081, 0, 0, 1.123081, 152.76358, -249.296707)">
    <title>Crous</title>
    <ellipse style="fill: rgb(226, 10, 23); pointer-events: none;" cx="184.182" cy="346.996" rx="125" ry="125">
      <title>Circle</title>
    </ellipse>
    <g transform="matrix(0.91857, 0, 0, 0.91857, 23.900871, 18.447351)" style="">
      <title>Letters</title>
      <path opacity="1.000000" stroke="none" d="M 129.11 363.125 C 125.34 362.924 121.874 365.915 121.926 370.124 C 121.977 374.159 121.938 378.195 121.938 382.234 C 121.938 382.425 121.938 382.619 121.938 382.845 C 119.635 382.845 117.348 382.845 115.04 382.845 C 115.04 369.322 115.04 355.806 115.04 342.258 C 117.325 342.258 119.599 342.258 121.915 342.258 C 121.915 347.46 121.915 352.661 121.915 357.968 C 122.151 357.857 122.316 357.783 122.475 357.703 C 129.495 354.174 138.077 356.893 141.492 364.57 C 142.193 366.145 142.51 367.821 142.517 369.539 C 142.539 373.958 142.524 378.381 142.524 382.841 C 140.236 382.841 137.947 382.841 135.601 382.841 C 135.601 382.685 135.602 382.515 135.601 382.344 C 135.576 378.1 135.599 373.852 135.511 369.61 C 135.44 366.257 132.824 363.528 129.49 363.159 C 129.378 363.147 129.264 363.137 129.11 363.125 Z" style="fill: rgb(255, 255, 255);" bx:origin="0.5 0.999301">
        <title>h</title>
      </path>
      <path opacity="1.000000" stroke="none" d="M 161.026 382.699 C 154.822 383.438 149.625 380.575 146.76 375.402 C 145.75 373.576 145.295 371.594 145.201 369.505 C 145.089 367.058 145.451 364.706 146.608 362.552 C 148.737 358.593 151.934 355.968 156.428 355.106 C 159.889 354.443 163.21 354.882 166.238 356.713 C 169.929 358.943 172.327 362.169 172.971 366.495 C 173.899 372.73 171.23 378.128 165.663 381.269 C 164.246 382.068 162.689 382.503 161.026 382.699 M 163.594 374.03 C 165.646 372.191 166.407 369.903 165.81 367.232 C 165.045 363.816 161.636 361.547 158.171 362.048 C 154.25 362.617 151.591 366.453 152.462 370.292 C 153.601 375.317 159.565 377.354 163.594 374.03 Z" style="fill: rgb(255, 255, 255);" bx:origin="0.5 0.999085">
        <title>o</title>
      </path>
      <path opacity="1.000000" stroke="none" d="M 224.1 362.969 C 219.536 353.689 207.447 352.133 200.816 359.093 C 200.669 358.958 200.521 358.82 200.375 358.685 C 196.833 355.376 192.642 354.285 187.919 355.055 C 185.069 355.516 182.651 356.844 180.589 358.835 C 177.851 361.475 176.284 364.684 176.223 368.509 C 176.15 373.211 176.198 377.915 176.193 382.616 C 176.193 382.664 176.215 382.709 176.228 382.771 C 178.625 382.771 181.011 382.771 183.45 382.771 C 183.45 382.554 183.45 382.356 183.45 382.157 C 183.461 377.658 183.39 373.155 183.502 368.658 C 183.626 363.696 189.461 360.445 193.813 362.857 C 196.383 364.279 197.71 366.474 197.711 369.448 C 197.711 373.712 197.739 377.977 197.757 382.24 C 197.757 382.418 197.757 382.594 197.757 382.766 C 200.213 382.766 202.601 382.766 205.03 382.766 C 205.03 382.631 205.03 382.515 205.03 382.403 C 205.03 376.858 205.028 371.312 205.039 365.765 C 205.04 365.535 205.118 365.27 205.247 365.079 C 207.727 361.411 213.116 361.021 216.19 364.259 C 217.579 365.724 218.164 367.466 218.166 369.45 C 218.171 373.715 218.188 377.979 218.199 382.244 C 218.2 382.42 218.199 382.598 218.199 382.765 C 220.663 382.765 223.049 382.765 225.47 382.765 C 225.47 382.66 225.47 382.58 225.47 382.498 C 225.47 378.016 225.477 373.531 225.466 369.047 C 225.461 366.951 225.039 364.939 224.1 362.969 Z" style="fill: rgb(255, 255, 255);" bx:origin="0.5 1.001087">
        <title>m</title>
      </path>
      <path opacity="1.000000" stroke="none" d="M 234.241 380.393 C 231.346 378.297 229.335 375.61 228.562 372.123 C 227.086 365.481 229.965 359.188 236.238 356.119 C 238.766 354.882 241.464 354.562 244.247 354.973 C 249.328 355.726 252.857 358.578 255.024 363.142 C 256.049 365.297 256.375 367.625 256.109 370.011 C 256.004 370.938 255.988 370.937 255.039 370.937 C 248.885 370.937 242.733 370.937 236.577 370.937 C 235.801 370.937 235.679 371.087 236.026 371.785 C 237.11 373.949 238.849 375.247 241.261 375.583 C 243.569 375.903 245.546 375.221 247.143 373.51 C 247.401 373.232 247.571 373.255 247.793 373.553 C 249.047 375.244 250.306 376.931 251.583 378.605 C 251.847 378.947 251.684 379.112 251.442 379.323 C 249.277 381.233 246.788 382.403 243.896 382.706 C 240.897 383.025 238.049 382.581 235.39 381.111 C 235.006 380.901 234.644 380.647 234.241 380.393 M 240.34 365.581 C 242.887 365.581 245.434 365.581 248.019 365.581 C 247.441 363.817 245.324 362.205 243.045 362.014 C 239.145 361.687 237.069 363.761 236.316 365.581 C 237.657 365.581 238.951 365.581 240.34 365.581 Z" style="fill: rgb(255, 255, 255);" bx:origin="0.492553 1.000034">
        <title>e</title>
      </path>
      <g transform="matrix(1.166675, 0, 0, 1.166675, 11.893192, -3.210345)" bx:origin="0.5 1.000007">
        <title>i</title>
        <path opacity="1.000000" stroke="none" d="M 211.688 309.871 C 211.698 308.953 211.598 309.052 212.464 309.05 C 213.934 309.047 215.404 309.05 216.874 309.048 C 217.459 309.048 217.461 309.045 217.461 309.623 C 217.461 315.977 217.461 322.331 217.461 328.687 C 217.461 329.237 217.44 329.789 217.467 330.34 C 217.486 330.727 217.372 330.867 216.961 330.86 C 215.387 330.839 213.811 330.852 212.236 330.852 C 211.692 330.852 211.689 330.851 211.689 330.312 C 211.688 323.512 211.688 316.71 211.688 309.871 Z" style="fill: rgb(255, 255, 255);"/>
        <path opacity="1.000000" stroke="none" d="M 213.703 307.596 C 211.622 306.918 210.636 305.018 211.317 303.061 C 212.124 300.747 215.224 300.1 216.973 301.883 C 218.028 302.958 218.257 304.566 217.547 305.916 C 216.857 307.227 215.404 307.905 213.893 307.618 C 213.841 307.609 213.788 307.608 213.703 307.596 Z" style="fill: rgb(255, 255, 255);"/>
      </g>
      <path opacity="1.000000" stroke="none" d="M 273.131 359.286 C 276.004 356.306 279.622 354.754 283.58 354.807 C 283.58 357.21 283.58 359.612 283.58 361.965 C 282.756 362.144 281.91 362.241 281.127 362.516 C 278.749 363.362 276.397 365.773 276.446 369.46 C 276.503 373.716 276.459 377.972 276.459 382.228 C 276.459 382.411 276.459 382.594 276.459 382.806 C 274.03 382.806 271.642 382.806 269.221 382.806 C 269.21 382.755 269.186 382.694 269.186 382.634 C 269.186 378.056 269.172 373.48 269.199 368.905 C 269.22 365.193 270.548 361.998 273.131 359.286 Z" style="fill: rgb(255, 255, 255);" bx:origin="0.5 1.000001">
        <title>r</title>
      </path>
      <g>
        <title>b</title>
        <path opacity="1.000000" stroke="none" d="M 296.542 356.712 C 299.764 355.901 302.899 356.05 305.841 357.535 C 307.734 358.493 309.313 359.719 310.524 361.225 C 310.764 363.576 309.681 375.435 308.814 379.495 C 307.26 380.905 305.453 381.918 303.312 382.405 C 296.752 383.89 290.598 380.941 287.788 374.686 C 287.034 373.002 286.779 371.189 286.779 369.351 C 286.765 360.686 286.776 352.021 286.765 343.356 C 286.765 342.946 286.872 342.777 287.315 342.784 C 289.201 342.801 291.09 342.789 292.978 342.79 C 293.565 342.79 293.586 342.81 293.586 343.383 C 293.586 347.962 293.586 352.543 293.589 357.122 C 293.589 357.336 293.543 357.555 293.7 357.84 C 294.6 357.386 295.529 356.993 296.542 356.712 Z M 299.028 375.919 C 299.671 376.011 300.311 376.013 300.964 375.937 C 304.69 375.504 307.691 371.423 306.144 367.268 C 305.139 364.57 302.364 362.485 298.781 363.162 C 295.064 363.863 292.454 367.8 294.02 371.845 C 294.882 374.07 296.579 375.435 299.028 375.919 Z" style="fill: rgb(255, 255, 255);">
          <title>cutted</title>
        </path>
        <path opacity="1.000000" stroke="none" d="M 296.447 356.588 C 299.651 355.782 302.769 355.93 305.693 357.406 C 309.588 359.379 312.146 362.488 312.902 366.862 C 313.573 370.755 312.826 374.361 310.308 377.49 C 308.443 379.812 306.115 381.469 303.178 382.135 C 296.655 383.613 290.537 380.68 287.742 374.461 C 286.993 372.787 286.739 370.983 286.739 369.156 C 286.725 360.54 286.736 351.924 286.725 343.309 C 286.725 342.9 286.832 342.734 287.272 342.739 C 289.148 342.757 291.025 342.744 292.903 342.746 C 293.486 342.746 293.508 342.766 293.508 343.336 C 293.508 347.889 293.508 352.444 293.512 356.997 C 293.512 357.209 293.465 357.428 293.621 357.71 C 294.516 357.258 295.44 356.868 296.447 356.588 M 298.919 375.686 C 299.558 375.779 300.194 375.781 300.844 375.706 C 304.549 375.274 307.532 371.216 305.994 367.085 C 304.995 364.402 302.236 362.329 298.673 363.002 C 294.978 363.699 292.382 367.614 293.94 371.635 C 294.796 373.849 296.484 375.206 298.919 375.686 Z" style="fill: rgb(255, 255, 255); visibility: hidden;">
          <title>original</title>
        </path>
      </g>
    </g>
  </g>
  <g transform="matrix(0.869526, 0, 0, 0.869526, -1.304289, -21.737793)">
    <title>Pole emploi</title>
    <g>
      <g>
        <path class="st0" d="M1.5,186.3c0,89.2,72.4,161.6,161.6,161.6s161.6-72.1,161.6-161.6C324.7,97.2,252.3,25,163.1,25 C73.7,24.8,1.5,97.2,1.5,186.3" style="fill: rgb(27, 43, 102);"/>
      </g>
    </g>
    <g>
      <path class="st0" d="M 281.9 125.5 C 290.8 135.1 295.9 148.9 297.4 166.6 C 297.6 169.6 294.4 172.1 291.2 172.1 L 199.9 172.1 C 196.7 172.1 193.3 169.3 193.7 166.2 C 195.8 148.7 201.2 135.1 209.9 125.8 C 219.1 115.8 231.2 110.7 245.2 110.9 C 260.4 110.8 272.7 115.7 281.9 125.5 M 218.7 82.7 C 213.6 83.8 208.9 85.3 204.2 87.2 C 191.2 92.3 180.6 99.5 171.8 108.9 C 163.1 118.3 156.3 129.5 151.8 142.9 C 151.2 145 150.3 147.4 149.7 149.5 L 149.7 224 C 154.2 240 162 253.4 172.9 264.4 C 191.4 283.6 217.4 293.1 251.4 293.1 C 265.9 293.1 278.875 290.884 289.875 287.284 C 310.075 280.284 332.9 260.1 336.9 241.2 C 339.4 228.9 331.8 226.1 327.7 225.4 C 326.9 225.4 326.2 225.2 325.3 225.2 C 320.6 225.2 316.8 226.7 314.4 229 C 311.6 231.5 303.3 239.4 299.1 243 C 294.6 246.8 289.9 250.4 284.8 253.6 C 279.7 257 274.2 259.5 268.4 261.3 C 262.9 262.8 256.5 263.6 249.9 263.6 C 239.7 263.6 230.3 261 221.8 255.9 C 213.3 250.8 206.5 243.3 201.6 233.6 C 196.9 224.5 194.4 214.2 193.9 202.7 C 193.7 198.9 196.7 196.5 200.1 196.5 L 299.05 155.282 C 295.315 154.431 339.996 177.676 335.186 144.748 C 334.649 141.073 332.051 128.354 324.824 116.227 C 317.948 104.689 310.531 97.523 300.665 91.735 C 289.775 85.346 285.001 82.911 276.001 80.847 L 218.3 82.7 L 218.7 82.7 Z" style="fill: rgb(27, 43, 102);"/>
    </g>
    <g>
      <path class="st1" d="M 204.2 87.2 C 191.2 92.3 180.6 99.5 171.8 108.9 C 163.1 118.3 156.3 129.5 151.8 142.9 C 147.3 156.3 144.8 170.8 144.8 186.3 C 144.8 219.5 154.2 245.5 172.9 264.6 C 191.4 283.8 217.4 293.3 251.4 293.3 C 265.4 293.3 278.25 290.918 289.15 287.518 C 303.65 269.618 314 249.2 319.8 226.3 C 317.7 226.9 316 228 314.5 229.3 C 311.7 231.8 303.4 239.7 299.2 243.3 C 294.7 247.1 290.1 250.8 284.9 253.9 C 279.8 257.3 274.3 259.9 268.5 261.6 C 263 263.1 256.6 264 250 264 C 239.8 264 230.303 261.614 221.852 256.514 C 213.365 251.392 206.331 244.138 201.431 234.438 C 196.731 225.238 193.804 213.211 193.304 201.711 C 193.11 198.031 191.852 177.703 193.153 166.63 C 194.073 158.803 195.764 150.212 199.249 141.921 C 201.773 135.917 204.819 130.658 208.306 126.784 C 222.668 110.828 239.832 109.414 247.992 109.31 C 260.636 109.148 272.771 109.408 285.307 119.829 C 293.069 126.281 294.412 128.337 299.661 134.99 C 304.614 141.268 312.64 162.074 322.263 162.368 C 322.857 162.386 317.178 141.31 308.934 121.699 C 306.461 115.816 292.32 89.556 289.178 85.402 C 276.578 79.902 264.3 79.6 247.7 79.6 C 231.4 79.5 217.2 82 204.2 87.2" style="fill: rgb(255, 255, 255);"/>
    </g>
  </g>
</svg>