<?xml version="1.0" encoding="utf-8"?>
<svg viewBox="0 0 500 500" xmlns="http://www.w3.org/2000/svg">
  <path opacity="1.000000" stroke="none" style="" d="M 47.521 326.105 C 58.841 343.421 70.197 360.794 81.554 378.17 C 82.051 378.019 82.549 377.868 83.046 377.715 C 83.046 283.9 83.046 190.086 83.046 96.141 C 118.141 96.141 152.464 96.141 186.492 96.141 C 186.492 111.946 186.661 144.744 186.661 144.744 C 177.113 144.541 167.564 144.296 158.014 144.152 C 152.764 144.072 147.512 144.158 141.518 144.129 C 140.653 144.218 141.211 214.91 141.211 250.005 C 153.359 250.005 173.597 249.863 186.309 249.863 C 186.375 264.903 186.436 283.286 186.492 298.97 C 186.495 299.924 152.623 298.295 142.102 299.451 C 141.424 299.386 142.078 406.427 142.067 456.68 C 142.067 457.173 141.939 457.666 141.846 458.35 C 122.742 458.35 103.773 458.35 83.358 458.35 C 83.358 452.123 83.163 445.781 83.423 439.46 C 83.612 434.917 71.227 423.176 67.852 419.807 C 64.229 416.192 61.141 412.064 57.997 408.028 C 50.972 399.009 43.28 390.374 37.322 380.697 C 30.209 369.147 23.73 357.027 18.611 344.498 C 13.012 330.798 7.804 316.782 5.831 301.899 C 4.96 295.329 3.821 288.788 2.612 282.269 C 2.474 281.521 -0.331 243.982 0.032 225.204 C 0.608 221.852 1.214 215.195 1.251 214.544 C 1.377 212.233 2.487 207.477 3.308 204.21 C 5.797 194.298 6.421 193.336 8.045 187.922 C 10.762 178.866 12.841 169.551 16.388 160.826 C 20.516 150.67 25.77 140.946 30.856 131.198 C 33.78 125.594 36.905 119.993 40.701 114.955 C 48.972 103.976 57.591 93.245 66.325 82.62 C 77.796 68.665 91.591 57.063 106.123 46.488 C 115.274 39.829 151.938 20.129 160.698 16.737 C 168.044 13.892 175.654 11.731 183.084 9.102 C 187.634 7.491 196.422 6.405 197.071 6.045 C 198.094 5.477 216.191 2.413 222.175 1.73 C 223.904 1.532 242.564 -0.213 249.787 0.081 C 249.732 -0.339 270.679 0.996 271.616 1.157 C 277.992 2.246 284.396 3.173 290.781 4.213 C 299.108 5.566 307.342 6.691 315.653 8.958 C 330.943 13.128 345.569 18.267 359.778 25.142 C 376.464 33.216 391.933 43.138 406.104 54.862 C 415.275 62.449 423.533 71.177 431.777 79.794 C 438.721 87.051 445.23 94.739 451.594 102.507 C 456.076 107.977 460.693 113.532 464.009 119.705 C 470.168 131.173 475.101 143.287 481.167 154.808 C 484.92 161.935 487.221 169.376 489.865 176.875 C 493.867 188.227 499.559 228.258 499.048 228.894 C 500.782 226.532 500.667 286.553 494.234 306.782 C 492.593 311.941 486.913 333.316 485.343 337.399 C 483.051 343.353 480.989 349.337 477.977 354.92 C 472.07 365.868 466.23 377.005 459.523 387.483 C 454.526 395.288 448.853 402.716 442.973 409.9 C 437.094 417.084 430.869 424.041 424.271 430.577 C 417.39 437.393 410.207 443.994 402.557 449.935 C 395.53 455.396 387.916 460.205 380.187 464.662 C 370.053 470.509 359.814 476.318 349.125 481.036 C 340.135 485.003 330.437 487.396 321.046 490.467 C 314.181 492.711 307.285 494.894 300.4 497.031 C 296.084 498.37 290.561 497.918 286.915 499.109 C 280.459 501.219 209.685 498.997 204.891 498.399 C 185.652 496.001 184.557 494.503 184.389 494.462 C 180.811 493.589 165.466 486.339 154.234 482.225 C 148.364 480.075 142.828 477.006 137.195 474.235 C 136.857 474.069 137.026 472.886 136.954 472.121 C 142.52 472.121 148.002 472.121 153.85 472.121 C 153.85 457.418 153.85 442.35 153.85 427.097 C 161.332 431.182 168.634 435.018 175.76 439.15 C 178.051 440.479 179.865 442.154 179.69 445.679 C 179.255 454.505 179.545 463.363 179.545 472.348 C 208.205 472.348 235.786 472.443 264.274 472.443 C 264.322 470.81 264.28 469.343 264.211 468.084 C 305.246 462.098 342.985 447.994 377.073 424.709 C 376.942 424.107 376.809 423.504 376.677 422.901 C 372.769 423.51 336.694 423.992 335.474 423.946 C 334.258 424.09 319.074 425.124 311.8 429.754 C 305.313 433.885 267.139 453.492 263.978 454.792 C 261.24 445.201 262.598 443.102 271.697 438.473 C 284.928 431.742 298.1 424.804 310.676 416.972 C 313.82 415.014 315.006 409.433 316.361 405.28 C 319.896 394.454 322.882 383.452 326.359 372.607 C 328.952 364.525 331.862 356.536 334.836 348.582 C 337.28 342.047 340.167 335.679 342.676 329.166 C 343.678 326.565 345.644 323.45 346.303 321.996 C 348.582 316.965 351.589 316.24 354.904 315.04 C 365.979 311.025 377.306 307.698 388.515 304.047 C 400.612 300.105 412.761 296.217 424.708 291.948 C 437.591 287.348 449.683 280.543 462.016 274.492 C 463.103 273.959 463.934 271.926 464.019 270.537 C 464.514 262.373 453.907 181.83 450.36 179.531 C 442.684 174.557 434.877 169.766 427.424 164.491 C 421.567 160.346 409.245 133.891 406.306 126.044 C 404.619 121.54 402.33 118.417 401.71 112.988 C 401.154 108.106 398.533 95.647 398.174 93.157 C 396.938 84.583 394.512 76.21 392.224 67.859 C 390.886 62.979 389.649 57.541 386.58 53.794 C 382.81 49.193 377.49 45.576 372.268 42.485 C 366.273 38.937 359.687 36.353 353.294 33.491 C 345.114 29.833 337.095 25.627 328.599 22.914 C 318.381 19.652 307.758 17.618 297.265 15.243 C 292.936 14.263 282.025 12.404 281.286 12.165 C 277.105 19.377 261.38 48.748 258.569 56.116 C 256.315 62.018 251.998 63.018 245.562 65.088 C 241.621 66.356 158.189 84.015 144.296 88.803 C 136.523 91.482 128.328 93.312 121.33 84.436 C 115.614 77.185 98.615 63.039 97.903 61.978 C 93.435 69.245 88.443 76.354 84.518 84.002 C 79.12 94.515 74.405 105.382 69.634 116.199 C 66.219 123.942 62.828 131.729 60.099 139.723 C 57.323 147.855 55.631 156.349 52.931 164.511 C 51.814 167.884 49.997 171.682 47.305 173.774 C 37.288 181.555 26.459 188.318 16.604 196.279 C 12.535 199.564 10.727 205.019 10.399 210.712 C 10.019 217.306 8.58 223.842 8.264 230.434 C 7.898 238.066 8.252 245.731 8.301 253.381 C 8.304 253.733 8.428 254.083 8.432 254.436 C 8.56 261.749 8.227 269.107 8.929 276.366 C 9.59 283.174 11.261 289.895 12.654 296.62 C 13.581 301.091 14.746 305.515 15.901 309.935 C 17.516 316.117 18.793 322.445 21.174 328.328 C 21.808 329.894 22.959 331.139 26.149 331.978 M 350.71 339.524 C 340.622 363.982 332.951 389.225 324.499 415.107 C 332.965 414.689 340.037 414.377 347.103 413.981 C 358.566 413.34 370.043 411.927 381.481 412.208 C 389.642 412.409 396.203 410.712 401.509 404.606 C 410.475 394.292 419.67 384.165 428.33 373.604 C 439.765 359.665 447.302 343.569 453.159 326.671 C 455.556 319.763 458.057 312.861 459.877 305.794 C 461.199 300.665 461.479 295.272 462.336 289.185 C 459.576 289.851 458.193 290.003 456.957 290.512 C 448.441 294.021 440.008 297.729 431.448 301.128 C 423.443 304.305 415.34 307.247 407.236 310.163 C 401.814 312.115 396.283 313.765 390.858 315.703 C 388.715 316.468 382.333 318.518 381.093 318.92 C 375.549 320.705 370.118 322.882 364.503 324.39 C 359.402 325.76 356.156 327.17 353.55 333.213 C 353.096 334.268 351.883 336.149 350.71 339.524 Z" />
  <path opacity="1.000000" stroke="none" style="" d="M 252.038 301.847 C 251.969 323.07 251.863 344.29 251.838 365.512 C 251.804 396.324 251.83 427.137 251.83 458.208 C 232.618 458.208 213.505 458.208 194.386 458.208 C 194.386 337.58 194.386 216.982 194.386 96.017 C 216.254 96.017 238.356 96.022 260.455 96.016 C 281.484 96.01 302.521 95.641 323.535 96.166 C 331.239 96.36 366.032 104.239 374.975 108.641 C 384.68 113.42 392.566 120.777 398.747 129.388 C 403.915 136.583 408.364 144.558 411.575 152.785 C 414.488 160.243 416.191 167.749 418.333 175.485 C 421.311 186.241 419.422 196.213 419.668 205.681 C 419.787 210.25 416.194 228.037 414.928 232.115 C 412.629 239.508 413.172 240.688 410.341 247.904 C 409.117 251.021 404.192 260.14 402.311 262.917 C 395.138 273.498 385.585 281.938 374.98 288.694 C 369.038 292.477 342.286 299.626 336.121 300.485 C 329.196 301.453 322.083 301.281 315.05 301.276 C 294.401 301.262 273.75 301.084 252.354 300.931 C 251.487 301.02 251.366 301.151 251.245 301.281 C 251.509 301.469 251.773 301.657 252.038 301.847 M 251.869 248.819 C 253.521 249.477 313.066 250.213 337.607 247.492 C 345.854 246.577 352.548 242.426 356.44 235.485 C 360.993 227.363 364.708 219.027 365.617 209.105 C 366.568 198.727 367.256 188.683 364.175 178.779 C 362.26 172.622 360.131 166.146 356.426 160.999 C 347.427 148.498 333.008 145.164 319.013 144.373 C 296.614 143.105 274.089 144.033 251.869 144.033 C 251.869 179.202 251.869 214.095 251.869 248.819 Z" />
</svg>