<svg viewBox="0 0 512 512" width="512px" height="512px" style="background-color: #3C3744" xmlns="http://www.w3.org/2000/svg">
  <path opacity="1.000000" stroke="none" style="fill: rgb(255, 255, 255);" d="M 48.661 333.931 C 60.253 351.663 71.882 369.453 83.511 387.246 C 84.02 387.091 84.53 386.936 85.039 386.78 C 85.039 290.713 85.039 194.648 85.039 98.448 C 120.976 98.448 156.123 98.448 190.968 98.448 C 190.968 114.633 191.141 148.218 191.141 148.218 C 181.364 148.01 171.585 147.759 161.806 147.611 C 156.43 147.53 151.052 147.618 144.914 147.588 C 144.029 147.679 144.6 220.068 144.6 256.005 C 157.039 256.005 177.763 255.859 190.78 255.859 C 190.848 271.26 190.91 290.085 190.968 306.145 C 190.971 307.122 156.286 305.454 145.512 306.637 C 144.818 306.571 145.488 416.181 145.476 467.64 C 145.476 468.145 145.345 468.649 145.25 469.35 C 125.688 469.35 106.263 469.35 85.359 469.35 C 85.359 462.973 85.159 456.479 85.425 450.007 C 85.619 445.355 72.936 433.332 69.48 429.882 C 65.77 426.18 62.608 421.953 59.389 417.82 C 52.195 408.585 44.319 399.743 38.218 389.833 C 30.934 378.006 24.3 365.595 19.058 352.766 C 13.324 338.737 7.991 324.384 5.971 309.144 C 5.079 302.417 3.913 295.719 2.675 289.043 C 2.533 288.277 -0.339 249.837 0.033 230.609 C 0.623 227.176 1.243 220.359 1.281 219.693 C 1.41 217.326 2.547 212.456 3.387 209.111 C 5.936 198.961 6.575 197.976 8.238 192.432 C 11.02 183.159 13.149 173.62 16.781 164.686 C 21.008 154.286 26.388 144.329 31.597 134.347 C 34.591 128.608 37.791 122.873 41.678 117.714 C 50.147 106.471 58.973 95.483 67.917 84.603 C 79.663 70.313 93.789 58.432 108.67 47.604 C 118.04 40.785 155.584 20.612 164.555 17.139 C 172.077 14.225 179.87 12.013 187.478 9.32 C 192.137 7.671 201.136 6.559 201.8 6.19 C 202.848 5.608 221.379 2.471 227.507 1.772 C 229.277 1.569 248.385 -0.218 255.782 0.083 C 255.725 -0.347 277.175 1.02 278.134 1.185 C 284.663 2.3 291.221 3.249 297.759 4.314 C 306.286 5.7 314.718 6.852 323.228 9.173 C 338.885 13.443 353.862 18.705 368.412 25.745 C 385.499 34.013 401.339 44.173 415.85 56.179 C 425.241 63.948 433.697 72.885 442.139 81.709 C 449.25 89.14 455.915 97.013 462.432 104.967 C 467.021 110.568 471.749 116.257 475.145 122.578 C 481.452 134.321 486.503 146.726 492.714 158.523 C 496.558 165.821 498.914 173.441 501.621 181.12 C 505.719 192.744 511.548 233.736 511.025 234.387 C 512.8 231.969 512.682 293.43 506.095 314.144 C 504.415 319.427 498.598 341.315 496.991 345.496 C 494.644 351.593 492.532 357.721 489.448 363.438 C 483.399 374.648 477.419 386.053 470.551 396.782 C 465.434 404.774 459.625 412.381 453.604 419.737 C 447.584 427.094 441.209 434.218 434.453 440.91 C 427.407 447.89 420.052 454.649 412.218 460.733 C 405.022 466.325 397.226 471.249 389.311 475.813 C 378.934 481.801 368.449 487.749 357.504 492.58 C 348.298 496.643 338.367 499.093 328.751 502.238 C 321.721 504.536 314.659 506.771 307.609 508.959 C 303.19 510.33 297.534 509.867 293.801 511.087 C 287.19 513.248 214.717 510.972 209.808 510.36 C 190.107 507.904 188.986 506.371 188.814 506.329 C 185.15 505.435 169.437 498.011 157.935 493.798 C 151.925 491.596 146.256 488.454 140.488 485.616 C 140.141 485.446 140.314 484.235 140.241 483.451 C 145.94 483.451 151.554 483.451 157.542 483.451 C 157.542 468.396 157.542 452.966 157.542 437.347 C 165.204 441.53 172.681 445.458 179.978 449.689 C 182.324 451.05 184.182 452.765 184.002 456.375 C 183.557 465.413 183.854 474.483 183.854 483.684 C 213.202 483.684 241.445 483.781 270.616 483.781 C 270.665 482.109 270.622 480.607 270.552 479.317 C 312.572 473.188 351.216 458.745 386.122 434.902 C 385.988 434.285 385.852 433.668 385.717 433.05 C 381.715 433.674 344.774 434.167 343.525 434.12 C 342.28 434.268 326.731 435.326 319.283 440.068 C 312.64 444.298 273.55 464.375 270.313 465.706 C 267.509 455.885 268.9 453.736 278.217 448.996 C 291.766 442.103 305.254 434.999 318.132 426.979 C 321.351 424.974 322.566 419.259 323.953 415.006 C 327.573 403.92 330.631 392.654 334.191 381.549 C 336.846 373.273 339.826 365.092 342.872 356.948 C 345.374 350.256 348.331 343.735 350.9 337.066 C 351.926 334.402 353.939 331.212 354.614 329.724 C 356.948 324.572 360.027 323.829 363.421 322.601 C 374.762 318.489 386.361 315.082 397.839 311.344 C 410.226 307.307 422.667 303.326 434.901 298.954 C 448.093 294.244 460.475 287.276 473.104 281.08 C 474.217 280.534 475.068 278.452 475.155 277.03 C 475.662 268.67 464.8 186.194 461.168 183.84 C 453.308 178.746 445.314 173.84 437.682 168.439 C 431.684 164.194 419.066 137.104 416.057 129.069 C 414.329 124.457 411.985 121.259 411.351 115.7 C 410.781 110.7 408.097 97.942 407.73 95.393 C 406.464 86.613 403.98 78.039 401.637 69.488 C 400.267 64.49 399 58.922 395.857 55.085 C 391.997 50.374 386.549 46.67 381.202 43.505 C 375.063 39.871 368.319 37.225 361.773 34.295 C 353.396 30.549 345.185 26.242 336.485 23.464 C 326.022 20.124 315.144 18.041 304.399 15.609 C 299.966 14.605 288.793 12.702 288.037 12.457 C 283.755 19.842 267.653 49.918 264.774 57.463 C 262.466 63.506 258.046 64.53 251.455 66.65 C 247.42 67.948 161.985 86.031 147.759 90.934 C 139.799 93.677 131.408 95.551 124.242 86.462 C 118.389 79.037 100.982 64.552 100.253 63.465 C 95.677 70.907 90.566 78.186 86.546 86.018 C 81.019 96.783 76.191 107.911 71.305 118.988 C 67.808 126.916 64.336 134.89 61.541 143.076 C 58.699 151.403 56.966 160.101 54.201 168.459 C 53.057 171.913 51.197 175.802 48.44 177.944 C 38.183 185.912 27.094 192.837 17.002 200.989 C 12.836 204.353 10.984 209.939 10.649 215.769 C 10.259 222.521 8.786 229.214 8.462 235.964 C 8.088 243.779 8.45 251.628 8.5 259.462 C 8.503 259.822 8.63 260.181 8.634 260.542 C 8.765 268.031 8.424 275.565 9.143 282.998 C 9.82 289.97 11.531 296.852 12.958 303.739 C 13.907 308.317 15.1 312.847 16.283 317.373 C 17.936 323.703 19.244 330.183 21.682 336.208 C 22.331 337.811 23.51 339.086 26.777 339.945 M 359.127 347.672 C 348.797 372.717 340.941 398.566 332.287 425.069 C 340.956 424.641 348.198 424.322 355.433 423.916 C 367.171 423.26 378.924 421.813 390.636 422.101 C 398.993 422.306 405.711 420.569 411.145 414.316 C 420.326 403.755 429.742 393.385 438.609 382.57 C 450.319 368.297 458.037 351.814 464.034 334.511 C 466.489 327.437 469.05 320.369 470.914 313.133 C 472.267 307.881 472.554 302.358 473.432 296.125 C 470.605 296.807 469.189 296.963 467.923 297.484 C 459.203 301.077 450.568 304.874 441.802 308.355 C 433.605 311.608 425.308 314.621 417.009 317.607 C 411.457 319.605 405.793 321.295 400.238 323.28 C 398.044 324.063 391.509 326.162 390.239 326.574 C 384.562 328.402 379 330.631 373.251 332.175 C 368.027 333.578 364.703 335.022 362.035 341.21 C 361.57 342.29 360.328 344.216 359.127 347.672 Z"/>
  <path opacity="1.000000" stroke="none" style="fill: rgb(255, 255, 255);" d="M 258.087 309.091 C 258.016 330.823 257.907 352.553 257.882 374.284 C 257.847 405.835 257.874 437.388 257.874 469.204 C 238.201 469.204 218.629 469.204 199.051 469.204 C 199.051 345.682 199.051 222.189 199.051 98.321 C 221.444 98.321 244.076 98.326 266.706 98.32 C 288.239 98.314 309.781 97.936 331.299 98.474 C 339.188 98.673 374.816 106.741 383.974 111.248 C 393.912 116.142 401.987 123.676 408.316 132.493 C 413.609 139.861 418.164 148.027 421.452 156.452 C 424.435 164.089 426.179 171.775 428.373 179.696 C 431.422 190.711 429.488 200.922 429.74 210.617 C 429.861 215.296 426.182 233.51 424.886 237.686 C 422.532 245.256 423.088 246.464 420.189 253.853 C 418.935 257.045 413.892 266.383 411.966 269.227 C 404.621 280.062 394.839 288.704 383.979 295.622 C 377.894 299.496 350.5 306.817 344.188 307.696 C 337.096 308.688 329.813 308.511 322.611 308.506 C 301.466 308.492 280.32 308.31 258.41 308.153 C 257.522 308.244 257.399 308.378 257.275 308.511 C 257.545 308.704 257.815 308.896 258.087 309.091 M 257.914 254.79 C 259.605 255.464 320.579 256.218 345.709 253.432 C 354.154 252.495 361.009 248.244 364.994 241.136 C 369.656 232.819 373.461 224.283 374.391 214.123 C 375.365 203.496 376.07 193.211 372.915 183.07 C 370.954 176.765 368.774 170.133 364.98 164.863 C 355.765 152.062 341 148.648 326.669 147.838 C 303.732 146.539 280.667 147.49 257.914 147.49 C 257.914 183.503 257.914 219.233 257.914 254.79 Z"/>
</svg>